{
  "accessors": [
    {
      "bufferView": 2,
      "componentType": 5126,
      "count": 11675,
      "max": [
        1.1792991161346436,
        0.8299042582511902,
        0.8299040794372559
      ],
      "min": [
        -1.1792991161346436,
        -0.8299042582511902,
        -6.292409896850586
      ],
      "type": "VEC3"
    },
    {
      "bufferView": 2,
      "byteOffset": 140100,
      "componentType": 5126,
      "count": 11675,
      "max": [
        1.0,
        1.0,
        1.0
      ],
      "min": [
        -1.0,
        -1.0,
        -1.0
      ],
      "type": "VEC3"
    },
    {
      "bufferView": 1,
      "componentType": 5126,
      "count": 11675,
      "max": [
        0.7552085518836975,
        0.8802084922790527
      ],
      "min": [
        0.24479171633720398,
        0.369791716337204
      ],
      "type": "VEC2"
    },
    {
      "bufferView": 0,
      "componentType": 5125,
      "count": 60432,
      "type": "SCALAR"
    },
    {
      "bufferView": 2,
      "byteOffset": 280200,
      "componentType": 5126,
      "count": 242,
      "max": [
        0.510098397731781,
        -0.6133763194084167,
        0.32687798142433167
      ],
      "min": [
        -0.5711990594863892,
        -0.8024992346763611,
        0.14708425104618073
      ],
      "type": "VEC3"
    },
    {
      "bufferView": 2,
      "byteOffset": 283104,
      "componentType": 5126,
      "count": 242,
      "max": [
        0.9869085550308228,
        0.08166845887899399,
        0.9241043925285339
      ],
      "min": [
        -0.9844465851783752,
        -0.9930692315101624,
        -0.8060066103935242
      ],
      "type": "VEC3"
    },
    {
      "bufferView": 1,
      "byteOffset": 93400,
      "componentType": 5126,
      "count": 242,
      "max": [
        0.6040195822715759,
        0.8647730350494385
      ],
      "min": [
        0.5082848072052002,
        0.7727636694908142
      ],
      "type": "VEC2"
    },
    {
      "bufferView": 0,
      "byteOffset": 241728,
      "componentType": 5125,
      "count": 1200,
      "type": "SCALAR"
    }
  ],
  "asset": {
    "extras": {
      "author": "sajjad3223 (https://sketchfab.com/sajjad3223)",
      "license": "CC-BY-4.0 (http://creativecommons.org/licenses/by/4.0/)",
      "source": "https://sketchfab.com/3d-models/stick-man-38d421ebfdb44709a2b6a5947905adb9",
      "title": "Stick Man"
    },
    "generator": "Sketchfab-12.67.0",
    "version": "2.0"
  },
  "bufferViews": [
    {
      "buffer": 0,
      "byteLength": 246528,
      "name": "floatBufferViews",
      "target": 34963
    },
    {
      "buffer": 0,
      "byteLength": 95336,
      "byteOffset": 246528,
      "byteStride": 8,
      "name": "floatBufferViews",
      "target": 34962
    },
    {
      "buffer": 0,
      "byteLength": 286008,
      "byteOffset": 341864,
      "byteStride": 12,
      "name": "floatBufferViews",
      "target": 34962
    }
  ],
  "buffers": [
    {
      "byteLength": 627872,
      "uri": "scene.bin"
    }
  ],
  "materials": [
    {
      "doubleSided": true,
      "name": "Material",
      "pbrMetallicRoughness": {
        "baseColorFactor": [
          0.0,
          0.0,
          0.0,
          1.0
        ],
        "metallicFactor": 0.0
      }
    },
    {
      "doubleSided": true,
      "name": "Material.017",
      "pbrMetallicRoughness": {
        "baseColorFactor": [
          0.8,
          0.8,
          0.8,
          1.0
        ],
        "metallicFactor": 0.0,
        "roughnessFactor": 0.8211145618000169
      }
    }
  ],
  "meshes": [
    {
      "name": "Cube.001_Material_0",
      "primitives": [
        {
          "attributes": {
            "NORMAL": 1,
            "POSITION": 0,
            "TEXCOORD_0": 2
          },
          "indices": 3,
          "material": 0,
          "mode": 4
        }
      ]
    },
    {
      "name": "Cube.001_Material.017_0",
      "primitives": [
        {
          "attributes": {
            "NORMAL": 5,
            "POSITION": 4,
            "TEXCOORD_0": 6
          },
          "indices": 7,
          "material": 1,
          "mode": 4
        }
      ]
    }
  ],
  "nodes": [
    {
      "children": [
        1
      ],
      "matrix": [
        1.0,
        0.0,
        0.0,
        0.0,
        0.0,
        2.220446049250313e-16,
        -1.0,
        0.0,
        0.0,
        1.0,
        2.220446049250313e-16,
        0.0,
        0.0,
        0.0,
        0.0,
        1.0
      ],
      "name": "Sketchfab_model"
    },
    {
      "children": [
        2
      ],
      "matrix": [
        1.0,
        0.0,
        0.0,
        0.0,
        0.0,
        0.0,
        1.0,
        0.0,
        0.0,
        -1.0,
        0.0,
        0.0,
        0.0,
        0.0,
        0.0,
        1.0
      ],
      "name": "7f9a3ddbef8645b6bed4a1b485ea40c6.fbx"
    },
    {
      "children": [
        3
      ],
      "name": "RootNode"
    },
    {
      "children": [
        4,
        5
      ],
      "matrix": [
        65.27444458007813,
        0.0,
        0.0,
        0.0,
        0.0,
        -1.0634556857910776e-05,
        -65.27444458007726,
        0.0,
        0.0,
        65.27444458007726,
        -1.0634556857910776e-05,
        0.0,
        1.4599876403808594,
        421.1422424316406,
        -21.390819549560547,
        1.0
      ],
      "name": "Cube.001"
    },
    {
      "mesh": 0,
      "name": "Cube.001_Material_0"
    },
    {
      "mesh": 1,
      "name": "Cube.001_Material.017_0"
    }
  ],
  "scene": 0,
  "scenes": [
    {
      "name": "Sketchfab_Scene",
      "nodes": [
        0
      ]
    }
  ]
}
